<?xml version="1.0" encoding="UTF-8"?>
<svg id="Layer_2" data-name="Layer 2" xmlns="http://www.w3.org/2000/svg" xmlns:xlink="http://www.w3.org/1999/xlink" viewBox="0 0 120 117">
  <defs>
    <style>
      .cls-1 {
        filter: url(#drop-shadow-2);
      }

      .cls-1, .cls-2, .cls-3 {
        fill: #fff;
        stroke-width: 0px;
      }

      .cls-2 {
        filter: url(#drop-shadow-1);
      }

      .cls-3 {
        filter: url(#drop-shadow-3);
      }
    </style>
    <filter id="drop-shadow-1" filterUnits="userSpaceOnUse">
      <feOffset dx="0" dy="0"/>
      <feGaussianBlur result="blur" stdDeviation="2.83"/>
      <feFlood flood-color="#000" flood-opacity=".15"/>
      <feComposite in2="blur" operator="in"/>
      <feComposite in="SourceGraphic"/>
    </filter>
    <filter id="drop-shadow-2" filterUnits="userSpaceOnUse">
      <feOffset dx="0" dy="0"/>
      <feGaussianBlur result="blur-2" stdDeviation="2.83"/>
      <feFlood flood-color="#000" flood-opacity=".15"/>
      <feComposite in2="blur-2" operator="in"/>
      <feComposite in="SourceGraphic"/>
    </filter>
    <filter id="drop-shadow-3" filterUnits="userSpaceOnUse">
      <feOffset dx="0" dy="0"/>
      <feGaussianBlur result="blur-3" stdDeviation="2.83"/>
      <feFlood flood-color="#000" flood-opacity=".15"/>
      <feComposite in2="blur-3" operator="in"/>
      <feComposite in="SourceGraphic"/>
    </filter>
  </defs>
  <g id="Layer_1-2" data-name="Layer 1">
    <g id="A220">
      <path class="cls-2" d="M46.18,50.95s2.08-5.5.12-13.85h-6.54c-1.09,7.75.12,13.85.12,13.85h6.31Z"/>
      <path class="cls-1" d="M74.1,50.95s-2.08-5.5-.12-13.85h6.54c1.09,7.75-.12,13.85-.12,13.85h-6.31Z"/>
      <path class="cls-3" d="M62.6,102.51l13.56,3.4c.41.1.82-.21.82-.64v-1.27c0-1.31-.66-2.54-1.75-3.27l-10.08-6.75c-.45-.3-.67-.84-.56-1.37.36-1.65,1.07-5.74,1.07-12.62v-20.7h10.21c1.38,0,2.75.23,4.05.68l28.75,9.86c2.03.69,3.29-2.15,1.42-3.19l-43.59-24.27c-.52-.29-.84-.84-.84-1.43v-14.71c0-8.39-2.11-13.55-3.73-16.25-.82-1.37-2.77-1.37-3.59,0-1.61,2.71-3.73,7.86-3.73,16.25v14.71c0,.6-.32,1.14-.84,1.43l-43.59,24.27c-1.87,1.04-.6,3.89,1.42,3.19l28.75-9.86c1.3-.45,2.67-.68,4.05-.68h10.21v20.7c0,6.88.71,10.97,1.07,12.62.12.53-.11,1.07-.56,1.37l-10.08,6.75c-1.09.73-1.75,1.96-1.75,3.27v1.27c0,.43.4.74.82.64l13.56-3.4,1.09,4.58c.15.63.71,1.08,1.36,1.08h0c.65,0,1.21-.45,1.36-1.08l1.09-4.58Z"/>
    </g>
  </g>
</svg>