<?xml version="1.0" encoding="UTF-8"?>
<svg id="Layer_2" data-name="Layer 2" xmlns="http://www.w3.org/2000/svg" xmlns:xlink="http://www.w3.org/1999/xlink" viewBox="0 0 117 119">
  <defs>
    <style>
      .cls-1 {
        filter: url(#drop-shadow-2);
      }

      .cls-1, .cls-2, .cls-3 {
        fill: #fff;
        stroke-width: 0px;
      }

      .cls-2 {
        filter: url(#drop-shadow-1);
      }

      .cls-3 {
        filter: url(#drop-shadow-3);
      }
    </style>
    <filter id="drop-shadow-1" filterUnits="userSpaceOnUse">
      <feOffset dx="0" dy="0"/>
      <feGaussianBlur result="blur" stdDeviation="2.83"/>
      <feFlood flood-color="#000" flood-opacity=".15"/>
      <feComposite in2="blur" operator="in"/>
      <feComposite in="SourceGraphic"/>
    </filter>
    <filter id="drop-shadow-2" filterUnits="userSpaceOnUse">
      <feOffset dx="0" dy="0"/>
      <feGaussianBlur result="blur-2" stdDeviation="2.83"/>
      <feFlood flood-color="#000" flood-opacity=".15"/>
      <feComposite in2="blur-2" operator="in"/>
      <feComposite in="SourceGraphic"/>
    </filter>
    <filter id="drop-shadow-3" filterUnits="userSpaceOnUse">
      <feOffset dx="0" dy="0"/>
      <feGaussianBlur result="blur-3" stdDeviation="2.83"/>
      <feFlood flood-color="#000" flood-opacity=".15"/>
      <feComposite in2="blur-3" operator="in"/>
      <feComposite in="SourceGraphic"/>
    </filter>
  </defs>
  <g id="Layer_1-2" data-name="Layer 1">
    <g id="A220">
      <path class="cls-2" d="M50.53,73.52s-5.5-2.08-13.85-.12v6.54c7.75,1.09,13.85-.12,13.85-.12v-6.31Z"/>
      <path class="cls-1" d="M50.53,45.6s-5.5,2.08-13.85.12v-6.54c7.75-1.09,13.85.12,13.85.12v6.31Z"/>
      <path class="cls-3" d="M102.1,57.1l3.4-13.56c.1-.41-.21-.82-.64-.82h-1.27c-1.31,0-2.54.66-3.27,1.75l-6.75,10.08c-.3.45-.84.67-1.37.56-1.65-.36-5.74-1.07-12.62-1.07h-20.7v-10.21c0-1.38.23-2.75.68-4.05l9.86-28.75c.69-2.03-2.15-3.29-3.19-1.42l-24.27,43.59c-.29.52-.84.84-1.43.84h-14.71c-8.39,0-13.55,2.11-16.25,3.73-1.37.82-1.37,2.77,0,3.59,2.71,1.61,7.86,3.73,16.25,3.73h14.71c.6,0,1.14.32,1.43.84l24.27,43.59c1.04,1.87,3.89.6,3.19-1.42l-9.86-28.75c-.45-1.3-.68-2.67-.68-4.05v-10.21h20.7c6.88,0,10.97-.71,12.62-1.07.53-.12,1.07.11,1.37.56l6.75,10.08c.73,1.09,1.96,1.75,3.27,1.75h1.27c.43,0,.74-.4.64-.82l-3.4-13.56,4.58-1.09c.63-.15,1.08-.71,1.08-1.36h0c0-.65-.45-1.21-1.08-1.36l-4.58-1.09Z"/>
    </g>
  </g>
</svg>