<?xml version="1.0" encoding="UTF-8"?>
<svg id="Layer_2" data-name="Layer 2" xmlns="http://www.w3.org/2000/svg" xmlns:xlink="http://www.w3.org/1999/xlink" viewBox="0 0 117 124">
  <defs>
    <style>
      .cls-1 {
        filter: url(#drop-shadow-2);
      }

      .cls-1, .cls-2, .cls-3 {
        fill: #fff;
        stroke-width: 0px;
      }

      .cls-2 {
        filter: url(#drop-shadow-1);
      }

      .cls-3 {
        filter: url(#drop-shadow-3);
      }
    </style>
    <filter id="drop-shadow-1" filterUnits="userSpaceOnUse">
      <feOffset dx="0" dy="0"/>
      <feGaussianBlur result="blur" stdDeviation="2.83"/>
      <feFlood flood-color="#000" flood-opacity=".15"/>
      <feComposite in2="blur" operator="in"/>
      <feComposite in="SourceGraphic"/>
    </filter>
    <filter id="drop-shadow-2" filterUnits="userSpaceOnUse">
      <feOffset dx="0" dy="0"/>
      <feGaussianBlur result="blur-2" stdDeviation="2.83"/>
      <feFlood flood-color="#000" flood-opacity=".15"/>
      <feComposite in2="blur-2" operator="in"/>
      <feComposite in="SourceGraphic"/>
    </filter>
    <filter id="drop-shadow-3" filterUnits="userSpaceOnUse">
      <feOffset dx="0" dy="0"/>
      <feGaussianBlur result="blur-3" stdDeviation="2.83"/>
      <feFlood flood-color="#000" flood-opacity=".15"/>
      <feComposite in2="blur-3" operator="in"/>
      <feComposite in="SourceGraphic"/>
    </filter>
  </defs>
  <g id="Layer_1-2" data-name="Layer 1">
    <g id="A320">
      <path class="cls-2" d="M45.08,40.88s1.73,4.58,0,10.8h-4.87c-1.73-6.21,0-10.8,0-10.8h4.87Z"/>
      <path class="cls-1" d="M72.3,40.88s-1.73,4.58,0,10.8h4.87c1.73-6.21,0-10.8,0-10.8h-4.87Z"/>
      <path class="cls-3" d="M60.8,109.41l14.72,3.33c.48.11.93-.25.93-.74v-1.87c0-.67-.34-1.29-.91-1.65l-11.96-7.52c-.73-.46-1.11-1.32-.95-2.17.54-2.91,1.71-9.59,1.71-12.84v-23.42h8.4c2.47,0,4.92.33,7.3.99l25.6,7.05c2.31.64,3.56-2.6,1.43-3.68l-40.12-20.41c-1.6-.82-2.61-2.46-2.61-4.26v-17.09c0-9.02-2.67-13.53-4.34-15.47-.69-.8-1.93-.8-2.62,0-1.67,1.94-4.34,6.45-4.34,15.47v17.09c0,1.8-1.01,3.45-2.61,4.26l-40.12,20.41c-2.13,1.09-.88,4.32,1.43,3.68l25.6-7.05c2.38-.66,4.84-.99,7.3-.99h8.4v23.42c0,3.25,1.17,9.93,1.71,12.84.16.85-.22,1.71-.95,2.17l-11.96,7.52c-.57.36-.91.98-.91,1.65v1.87c0,.49.45.85.93.74l14.72-3.33s.2,3.28,1.56,5.97h1.1c1.36-2.69,1.56-5.97,1.56-5.97Z"/>
    </g>
  </g>
</svg>