<?xml version="1.0" encoding="UTF-8"?>
<svg id="Layer_2" data-name="Layer 2" xmlns="http://www.w3.org/2000/svg" xmlns:xlink="http://www.w3.org/1999/xlink" viewBox="0 0 144 178">
  <defs>
    <style>
      .cls-1 {
        filter: url(#drop-shadow-2);
      }

      .cls-1, .cls-2, .cls-3 {
        fill: #fff;
        stroke-width: 0px;
      }

      .cls-2 {
        filter: url(#drop-shadow-1);
      }

      .cls-3 {
        filter: url(#drop-shadow-3);
      }
    </style>
    <filter id="drop-shadow-1" filterUnits="userSpaceOnUse">
      <feOffset dx="0" dy="0"/>
      <feGaussianBlur result="blur" stdDeviation="2.83"/>
      <feFlood flood-color="#000" flood-opacity=".15"/>
      <feComposite in2="blur" operator="in"/>
      <feComposite in="SourceGraphic"/>
    </filter>
    <filter id="drop-shadow-2" filterUnits="userSpaceOnUse">
      <feOffset dx="0" dy="0"/>
      <feGaussianBlur result="blur-2" stdDeviation="2.83"/>
      <feFlood flood-color="#000" flood-opacity=".15"/>
      <feComposite in2="blur-2" operator="in"/>
      <feComposite in="SourceGraphic"/>
    </filter>
    <filter id="drop-shadow-3" filterUnits="userSpaceOnUse">
      <feOffset dx="0" dy="0"/>
      <feGaussianBlur result="blur-3" stdDeviation="2.83"/>
      <feFlood flood-color="#000" flood-opacity=".15"/>
      <feComposite in2="blur-3" operator="in"/>
      <feComposite in="SourceGraphic"/>
    </filter>
  </defs>
  <g id="Layer_1-2" data-name="Layer 1">
    <g id="A337">
      <path class="cls-2" d="M91.08,80.81s-1.53-16.23,0-20.75h7.21c1.53,4.51,0,20.75,0,20.75h-7.21Z"/>
      <path class="cls-1" d="M52.74,80.81s1.53-16.23,0-20.75h-7.21c-1.53,4.51,0,20.75,0,20.75h7.21Z"/>
      <path class="cls-3" d="M73.94,161.75l18.99,6.78c.51.18,1.06-.2,1.06-.74v-4.18c0-1.17-.55-2.27-1.49-2.97l-14.72-10.95c-.69-.51-1.02-1.37-.87-2.21l4.22-23.1c.94-5.14,1.41-10.36,1.41-15.59v-13.4h9.77c3.64,0,7.26.64,10.68,1.9l30.24,11.14c.98.36,2.03-.37,2.03-1.41v-3.52c0-1.73-.92-3.34-2.41-4.21l-47.18-27.72c-1.94-1.14-3.12-3.21-3.12-5.46v-29.14c0-5.54-3.08-12.35-4.74-17.34-2.13-6.38-3.79-10.4-5.89-10.4s-3.76,4.02-5.89,10.4c-1.66,4.99-4.74,11.79-4.74,17.34v29.14c0,2.24-1.19,4.32-3.12,5.46l-47.18,27.72c-1.49.88-2.41,2.48-2.41,4.21v3.52c0,1.05,1.04,1.78,2.03,1.41l30.24-11.14c3.42-1.26,7.03-1.9,10.68-1.9h9.77v13.4c0,5.23.47,10.44,1.41,15.59l4.22,23.1c.15.84-.18,1.7-.87,2.21l-14.72,10.95c-.94.7-1.49,1.8-1.49,2.97v4.18c0,.55.54.93,1.06.74l18.99-6.78,1.07,6.81c.07.47.48.82.96.82h0c.48,0,.89-.35.96-.82l1.07-6.81Z"/>
    </g>
  </g>
</svg>