<?xml version="1.0" encoding="UTF-8"?>
<svg id="Layer_2" data-name="Layer 2" xmlns="http://www.w3.org/2000/svg" xmlns:xlink="http://www.w3.org/1999/xlink" viewBox="0 0 178 145">
  <defs>
    <style>
      .cls-1 {
        filter: url(#drop-shadow-2);
      }

      .cls-1, .cls-2, .cls-3 {
        fill: #fff;
        stroke-width: 0px;
      }

      .cls-2 {
        filter: url(#drop-shadow-1);
      }

      .cls-3 {
        filter: url(#drop-shadow-3);
      }
    </style>
    <filter id="drop-shadow-1" filterUnits="userSpaceOnUse">
      <feOffset dx="0" dy="0"/>
      <feGaussianBlur result="blur" stdDeviation="2.83"/>
      <feFlood flood-color="#000" flood-opacity=".15"/>
      <feComposite in2="blur" operator="in"/>
      <feComposite in="SourceGraphic"/>
    </filter>
    <filter id="drop-shadow-2" filterUnits="userSpaceOnUse">
      <feOffset dx="0" dy="0"/>
      <feGaussianBlur result="blur-2" stdDeviation="2.83"/>
      <feFlood flood-color="#000" flood-opacity=".15"/>
      <feComposite in2="blur-2" operator="in"/>
      <feComposite in="SourceGraphic"/>
    </filter>
    <filter id="drop-shadow-3" filterUnits="userSpaceOnUse">
      <feOffset dx="0" dy="0"/>
      <feGaussianBlur result="blur-3" stdDeviation="2.83"/>
      <feFlood flood-color="#000" flood-opacity=".15"/>
      <feComposite in2="blur-3" operator="in"/>
      <feComposite in="SourceGraphic"/>
    </filter>
  </defs>
  <g id="Layer_1-2" data-name="Layer 1">
    <g id="A337">
      <path class="cls-2" d="M80.41,53.13s-16.23,1.53-20.75,0v-7.21c4.51-1.53,20.75,0,20.75,0v7.21Z"/>
      <path class="cls-1" d="M80.41,91.48s-16.23-1.53-20.75,0v7.21c4.51,1.53,20.75,0,20.75,0v-7.21Z"/>
      <path class="cls-3" d="M161.35,70.27l6.78-18.99c.18-.51-.2-1.06-.74-1.06h-4.18c-1.17,0-2.27.55-2.97,1.49l-10.95,14.72c-.51.69-1.37,1.02-2.21.87l-23.1-4.22c-5.14-.94-10.36-1.41-15.59-1.41h-13.4v-9.77c0-3.64.64-7.26,1.9-10.68l11.14-30.24c.36-.98-.37-2.03-1.41-2.03h-3.52c-1.73,0-3.34.92-4.21,2.41l-27.72,47.18c-1.14,1.94-3.21,3.12-5.46,3.12h-29.14c-5.54,0-12.35,3.08-17.34,4.74-6.38,2.13-10.4,3.79-10.4,5.89s4.02,3.76,10.4,5.89c4.99,1.66,11.79,4.74,17.34,4.74h29.14c2.24,0,4.32,1.19,5.46,3.12l27.72,47.18c.88,1.49,2.48,2.41,4.21,2.41h3.52c1.05,0,1.78-1.04,1.41-2.03l-11.14-30.24c-1.26-3.42-1.9-7.03-1.9-10.68v-9.77h13.4c5.23,0,10.44-.47,15.59-1.41l23.1-4.22c.84-.15,1.7.18,2.21.87l10.95,14.72c.7.94,1.8,1.49,2.97,1.49h4.18c.55,0,.93-.54.74-1.06l-6.78-18.99,6.81-1.07c.47-.07.82-.48.82-.96h0c0-.48-.35-.89-.82-.96l-6.81-1.07Z"/>
    </g>
  </g>
</svg>