<?xml version="1.0" encoding="UTF-8"?>
<svg id="Layer_2" data-name="Layer 2" xmlns="http://www.w3.org/2000/svg" xmlns:xlink="http://www.w3.org/1999/xlink" viewBox="0 0 209 211">
  <defs>
    <style>
      .cls-1 {
        filter: url(#drop-shadow-5);
      }

      .cls-1, .cls-2, .cls-3, .cls-4, .cls-5 {
        fill: #fff;
        stroke-width: 0px;
      }

      .cls-2 {
        filter: url(#drop-shadow-2);
      }

      .cls-3 {
        filter: url(#drop-shadow-1);
      }

      .cls-4 {
        filter: url(#drop-shadow-3);
      }

      .cls-5 {
        filter: url(#drop-shadow-4);
      }
    </style>
    <filter id="drop-shadow-1" filterUnits="userSpaceOnUse">
      <feOffset dx="0" dy="0"/>
      <feGaussianBlur result="blur" stdDeviation="2.83"/>
      <feFlood flood-color="#000" flood-opacity=".15"/>
      <feComposite in2="blur" operator="in"/>
      <feComposite in="SourceGraphic"/>
    </filter>
    <filter id="drop-shadow-2" filterUnits="userSpaceOnUse">
      <feOffset dx="0" dy="0"/>
      <feGaussianBlur result="blur-2" stdDeviation="2.83"/>
      <feFlood flood-color="#000" flood-opacity=".15"/>
      <feComposite in2="blur-2" operator="in"/>
      <feComposite in="SourceGraphic"/>
    </filter>
    <filter id="drop-shadow-3" filterUnits="userSpaceOnUse">
      <feOffset dx="0" dy="0"/>
      <feGaussianBlur result="blur-3" stdDeviation="2.83"/>
      <feFlood flood-color="#000" flood-opacity=".15"/>
      <feComposite in2="blur-3" operator="in"/>
      <feComposite in="SourceGraphic"/>
    </filter>
    <filter id="drop-shadow-4" filterUnits="userSpaceOnUse">
      <feOffset dx="0" dy="0"/>
      <feGaussianBlur result="blur-4" stdDeviation="2.83"/>
      <feFlood flood-color="#000" flood-opacity=".15"/>
      <feComposite in2="blur-4" operator="in"/>
      <feComposite in="SourceGraphic"/>
    </filter>
    <filter id="drop-shadow-5" filterUnits="userSpaceOnUse">
      <feOffset dx="0" dy="0"/>
      <feGaussianBlur result="blur-5" stdDeviation="2.83"/>
      <feFlood flood-color="#000" flood-opacity=".15"/>
      <feComposite in2="blur-5" operator="in"/>
      <feComposite in="SourceGraphic"/>
    </filter>
  </defs>
  <g id="Layer_1-2" data-name="Layer 1">
    <g id="A345">
      <path class="cls-3" d="M131.33,90.31v-12.27c0-1.05.85-1.9,1.9-1.9h3.8c1.05,0,1.9.85,1.9,1.9v14.46l-7.61-2.19Z"/>
      <path class="cls-2" d="M164.64,111.33v-12.27c0-1.05.85-1.9,1.9-1.9h3.8c1.05,0,1.9.85,1.9,1.9v14.46l-7.61-2.19Z"/>
      <path class="cls-4" d="M77.42,90.31v-12.27c0-1.05-.85-1.9-1.9-1.9h-3.8c-1.05,0-1.9.85-1.9,1.9v14.46l7.61-2.19Z"/>
      <path class="cls-5" d="M44.11,111.33v-12.27c0-1.05-.85-1.9-1.9-1.9h-3.8c-1.05,0-1.9.85-1.9,1.9v14.46l7.61-2.19Z"/>
      <path class="cls-1" d="M101.48,192.98l1.84,6.1c.32,1.05,1.8,1.05,2.12,0l1.84-6.1,27.32,8.53c.97.3,1.96-.42,1.96-1.44v-2.65c0-1.62-.81-3.13-2.16-4.03l-23.15-15.37c-.81-.54-1.22-1.52-1.04-2.47.98-5.04,3.9-21.33,3.9-36.16v-30.21l15.97,2.44c3.21.49,6.35,1.36,9.36,2.58l58.45,23.82c1.06.43,2.23-.35,2.23-1.5v-3.95c0-1.75-.89-3.38-2.36-4.32l-81.99-52.6c-1.03-.66-1.66-1.81-1.66-3.04v-24.44c0-28.14-5.31-36.24-8.09-38.56-.96-.8-2.35-.8-3.3,0-2.78,2.31-8.09,10.41-8.09,38.56v24.44c0,1.23-.63,2.37-1.66,3.04L10.99,128.25c-1.47.94-2.36,2.57-2.36,4.32v3.95c0,1.15,1.16,1.93,2.23,1.5l58.45-23.82c3.01-1.23,6.15-2.09,9.36-2.58l15.97-2.44v30.21c0,14.83,2.92,31.11,3.9,36.16.19.96-.22,1.93-1.04,2.47l-23.15,15.37c-1.35.9-2.16,2.41-2.16,4.03v2.65c0,1.02.99,1.75,1.96,1.44l27.32-8.53Z"/>
    </g>
  </g>
</svg>