<?xml version="1.0" encoding="UTF-8"?>
<svg id="Layer_2" data-name="Layer 2" xmlns="http://www.w3.org/2000/svg" xmlns:xlink="http://www.w3.org/1999/xlink" viewBox="0 0 191.5 192.56">
  <defs>
    <style>
      .cls-1 {
        fill: url(#linear-gradient);
      }

      .cls-1, .cls-2, .cls-3, .cls-4, .cls-5 {
        stroke-width: 0px;
      }

      .cls-2 {
        fill: url(#linear-gradient-4);
      }

      .cls-3 {
        fill: url(#linear-gradient-2);
      }

      .cls-4 {
        fill: url(#linear-gradient-3);
      }

      .cls-5 {
        fill: #fff;
      }
    </style>
    <linearGradient id="linear-gradient" x1="123.26" y1="81.61" x2="130.96" y2="68.28" gradientUnits="userSpaceOnUse">
      <stop offset="0" stop-color="#bfbfbf"/>
      <stop offset=".4" stop-color="#fcfcfc"/>
    </linearGradient>
    <linearGradient id="linear-gradient-2" x1="156.57" y1="102.63" x2="164.27" y2="89.31" xlink:href="#linear-gradient"/>
    <linearGradient id="linear-gradient-3" x1="68.24" x2="60.54" y2="68.28" xlink:href="#linear-gradient"/>
    <linearGradient id="linear-gradient-4" x1="34.93" y1="102.63" x2="27.23" y2="89.31" xlink:href="#linear-gradient"/>
  </defs>
  <g id="Layer_1-2" data-name="Layer 1">
    <g id="A345">
      <path class="cls-1" d="M122.7,81.28v-12.27c0-1.05.85-1.9,1.9-1.9h3.8c1.05,0,1.9.85,1.9,1.9v14.46l-7.61-2.19Z"/>
      <path class="cls-3" d="M156.01,102.31v-12.27c0-1.05.85-1.9,1.9-1.9h3.8c1.05,0,1.9.85,1.9,1.9v14.46l-7.61-2.19Z"/>
      <path class="cls-4" d="M68.8,81.28v-12.27c0-1.05-.85-1.9-1.9-1.9h-3.8c-1.05,0-1.9.85-1.9,1.9v14.46l7.61-2.19Z"/>
      <path class="cls-2" d="M35.49,102.31v-12.27c0-1.05-.85-1.9-1.9-1.9h-3.8c-1.05,0-1.9.85-1.9,1.9v14.46l7.61-2.19Z"/>
      <path class="cls-5" d="M92.86,183.95l1.84,6.1c.32,1.05,1.8,1.05,2.12,0l1.84-6.1,27.32,8.53c.97.3,1.96-.42,1.96-1.44v-2.65c0-1.62-.81-3.13-2.16-4.03l-23.15-15.37c-.81-.54-1.22-1.52-1.04-2.47.98-5.04,3.9-21.33,3.9-36.16v-30.21l15.97,2.44c3.21.49,6.35,1.36,9.36,2.58l58.45,23.82c1.06.43,2.23-.35,2.23-1.5v-3.95c0-1.75-.89-3.38-2.36-4.32l-81.99-52.6c-1.03-.66-1.66-1.81-1.66-3.04v-24.44c0-28.14-5.31-36.24-8.09-38.56-.96-.8-2.35-.8-3.3,0-2.78,2.31-8.09,10.41-8.09,38.56v24.44c0,1.23-.63,2.37-1.66,3.04L2.36,119.23c-1.47.94-2.36,2.57-2.36,4.32v3.95c0,1.15,1.16,1.93,2.23,1.5l58.45-23.82c3.01-1.23,6.15-2.09,9.36-2.58l15.97-2.44v30.21c0,14.83,2.92,31.11,3.9,36.16.19.96-.22,1.93-1.04,2.47l-23.15,15.37c-1.35.9-2.16,2.41-2.16,4.03v2.65c0,1.02.99,1.75,1.96,1.44l27.32-8.53Z"/>
    </g>
  </g>
</svg>