<?xml version="1.0" encoding="UTF-8"?>
<svg id="Layer_2" data-name="Layer 2" xmlns="http://www.w3.org/2000/svg" xmlns:xlink="http://www.w3.org/1999/xlink" viewBox="0 0 176.05 189.35">
  <defs>
    <style>
      .cls-1 {
        fill: url(#linear-gradient);
      }

      .cls-1, .cls-2, .cls-3 {
        stroke-width: 0px;
      }

      .cls-2 {
        fill: url(#linear-gradient-2);
      }

      .cls-3 {
        fill: #fff;
      }
    </style>
    <linearGradient id="linear-gradient" x1="62.06" y1="81.47" x2="53.4" y2="66.46" gradientUnits="userSpaceOnUse">
      <stop offset="0" stop-color="#bfbfbf"/>
      <stop offset=".5" stop-color="#fcfcfc"/>
    </linearGradient>
    <linearGradient id="linear-gradient-2" x1="113.99" x2="122.65" y2="66.46" xlink:href="#linear-gradient"/>
  </defs>
  <g id="Layer_1-2" data-name="Layer 1">
    <g id="A350">
      <path class="cls-1" d="M63.23,80.79s1.56-10.23,0-14.31h-9.87s-2.47,2.81,0,16.93"/>
      <path class="cls-2" d="M112.82,80.79s-1.56-10.23,0-14.31h9.87s2.47,2.81,0,16.93"/>
      <path class="cls-3" d="M85.8,181.2l1,3.77c.15.55.65.94,1.22.94h0c.57,0,1.07-.39,1.22-.94l1-3.77,22.33,8.05c1.09.39,2.23-.45,2.18-1.6-.19-4.29-.96-5.21-2.46-6.52-3.69-3.22-13.75-10.56-18.2-13.78-1.29-.93-1.87-2.57-1.46-4.1,1.21-4.5,3.54-14.09,3.54-21.31v-39.48h14.01c5.15,0,10.26.96,15.07,2.82l47.62,18.49c2.53.98,4.4-2.44,2.2-4.04l-76.39-55.49c-1.21-.88-1.93-2.28-1.93-3.78v-20.45c0-24.35-3.93-34.65-6.52-38.78-1.02-1.63-3.41-1.63-4.43,0-2.59,4.14-6.52,14.44-6.52,38.78v20.45c0,1.5-.72,2.9-1.93,3.78L.97,119.72c-2.2,1.6-.33,5.02,2.2,4.04l47.62-18.49c4.8-1.86,9.91-2.82,15.07-2.82h14.01v39.48c0,7.23,2.33,16.82,3.54,21.32.41,1.54-.16,3.17-1.45,4.1-4.45,3.22-14.51,10.56-18.2,13.78-1.5,1.31-2.28,2.23-2.46,6.52-.05,1.16,1.09,2,2.18,1.6l22.33-8.05Z"/>
    </g>
  </g>
</svg>