<?xml version="1.0" encoding="UTF-8"?>
<svg id="Layer_2" data-name="Layer 2" xmlns="http://www.w3.org/2000/svg" xmlns:xlink="http://www.w3.org/1999/xlink" viewBox="0 0 225 273">
  <defs>
    <style>
      .cls-1 {
        filter: url(#drop-shadow-5);
      }

      .cls-1, .cls-2, .cls-3, .cls-4, .cls-5 {
        fill: #fff;
        stroke-width: 0px;
      }

      .cls-2 {
        filter: url(#drop-shadow-2);
      }

      .cls-3 {
        filter: url(#drop-shadow-1);
      }

      .cls-4 {
        filter: url(#drop-shadow-3);
      }

      .cls-5 {
        filter: url(#drop-shadow-4);
      }
    </style>
    <filter id="drop-shadow-1" filterUnits="userSpaceOnUse">
      <feOffset dx="0" dy="0"/>
      <feGaussianBlur result="blur" stdDeviation="2.83"/>
      <feFlood flood-color="#000" flood-opacity=".15"/>
      <feComposite in2="blur" operator="in"/>
      <feComposite in="SourceGraphic"/>
    </filter>
    <filter id="drop-shadow-2" filterUnits="userSpaceOnUse">
      <feOffset dx="0" dy="0"/>
      <feGaussianBlur result="blur-2" stdDeviation="2.83"/>
      <feFlood flood-color="#000" flood-opacity=".15"/>
      <feComposite in2="blur-2" operator="in"/>
      <feComposite in="SourceGraphic"/>
    </filter>
    <filter id="drop-shadow-3" filterUnits="userSpaceOnUse">
      <feOffset dx="0" dy="0"/>
      <feGaussianBlur result="blur-3" stdDeviation="2.83"/>
      <feFlood flood-color="#000" flood-opacity=".15"/>
      <feComposite in2="blur-3" operator="in"/>
      <feComposite in="SourceGraphic"/>
    </filter>
    <filter id="drop-shadow-4" filterUnits="userSpaceOnUse">
      <feOffset dx="0" dy="0"/>
      <feGaussianBlur result="blur-4" stdDeviation="2.83"/>
      <feFlood flood-color="#000" flood-opacity=".15"/>
      <feComposite in2="blur-4" operator="in"/>
      <feComposite in="SourceGraphic"/>
    </filter>
    <filter id="drop-shadow-5" filterUnits="userSpaceOnUse">
      <feOffset dx="0" dy="0"/>
      <feGaussianBlur result="blur-5" stdDeviation="2.83"/>
      <feFlood flood-color="#000" flood-opacity=".15"/>
      <feComposite in2="blur-5" operator="in"/>
      <feComposite in="SourceGraphic"/>
    </filter>
  </defs>
  <g id="Layer_1-2" data-name="Layer 1">
    <g id="A388">
      <path class="cls-3" d="M90.73,175.78c-10.35-2.92-18.27,0-18.27,0v8.99s7.93,2.92,18.27,0v-8.99Z"/>
      <path class="cls-2" d="M114.08,209.06c-10.35-2.92-18.27,0-18.27,0v8.99s7.93,2.92,18.27,0v-8.99Z"/>
      <path class="cls-4" d="M90.73,97.55c-10.35,2.92-18.27,0-18.27,0v-8.99s7.93-2.92,18.27,0v8.99Z"/>
      <path class="cls-5" d="M114.08,64.28c-10.35,2.92-18.27,0-18.27,0v-8.99s7.93-2.92,18.27,0v8.99Z"/>
      <path class="cls-1" d="M202.73,139.72l6.74-1.59c1.54-.36,1.54-2.55,0-2.91l-6.74-1.59,12.72-38.59c.48-1.47-.61-2.98-2.16-2.98h-3.6c-3.12,0-6.04,1.52-7.83,4.07l-21.13,30.07c-1.52,2.17-4.21,3.18-6.78,2.54-4.42-1.1-11.68-2.6-18.53-2.6h-40.87l3.68-16.03c1.13-4.91,2.64-9.73,4.52-14.41l31.95-79.47c2.35-5.84-5.61-10.2-9.26-5.06l-79.74,112.11c-1.16,1.64-3.05,2.61-5.06,2.61h-24.38c-11.35,0-20,4.19-24.92,7.35-2.53,1.63-2.53,5.29,0,6.91,4.92,3.16,13.57,7.35,24.92,7.35h24.38c2.01,0,3.89.97,5.06,2.61l79.74,112.11c3.65,5.13,11.61.78,9.26-5.06l-31.95-79.47c-1.88-4.68-3.39-9.49-4.52-14.41l-3.68-16.03h40.87c6.85,0,14.11-1.49,18.53-2.6,2.57-.64,5.26.37,6.78,2.54l21.13,30.07c1.79,2.55,4.71,4.07,7.83,4.07h3.6c1.55,0,2.64-1.51,2.16-2.98l-12.72-38.59Z"/>
    </g>
  </g>
</svg>