<?xml version="1.0" encoding="UTF-8"?>
<svg id="Layer_2" data-name="Layer 2" xmlns="http://www.w3.org/2000/svg" xmlns:xlink="http://www.w3.org/1999/xlink" viewBox="0 0 112 110">
  <defs>
    <style>
      .cls-1 {
        filter: url(#drop-shadow-2);
      }

      .cls-1, .cls-2, .cls-3 {
        fill: #fff;
        stroke-width: 0px;
      }

      .cls-2 {
        filter: url(#drop-shadow-1);
      }

      .cls-3 {
        filter: url(#drop-shadow-3);
      }
    </style>
    <filter id="drop-shadow-1" filterUnits="userSpaceOnUse">
      <feOffset dx="0" dy="0"/>
      <feGaussianBlur result="blur" stdDeviation="2.83"/>
      <feFlood flood-color="#000" flood-opacity=".15"/>
      <feComposite in2="blur" operator="in"/>
      <feComposite in="SourceGraphic"/>
    </filter>
    <filter id="drop-shadow-2" filterUnits="userSpaceOnUse">
      <feOffset dx="0" dy="0"/>
      <feGaussianBlur result="blur-2" stdDeviation="2.83"/>
      <feFlood flood-color="#000" flood-opacity=".15"/>
      <feComposite in2="blur-2" operator="in"/>
      <feComposite in="SourceGraphic"/>
    </filter>
    <filter id="drop-shadow-3" filterUnits="userSpaceOnUse">
      <feOffset dx="0" dy="0"/>
      <feGaussianBlur result="blur-3" stdDeviation="2.83"/>
      <feFlood flood-color="#000" flood-opacity=".15"/>
      <feComposite in2="blur-3" operator="in"/>
      <feComposite in="SourceGraphic"/>
    </filter>
  </defs>
  <g id="Layer_1-2" data-name="Layer 1">
    <g id="B737">
      <path class="cls-2" d="M40.83,66.59c3.78-1.62,11.01,0,11.01,0v5.5s-6.34,1.67-11.01,0v-5.5Z"/>
      <path class="cls-1" d="M40.83,43.75c3.78,1.62,11.01,0,11.01,0v-5.5s-6.34-1.67-11.01,0v5.5Z"/>
      <path class="cls-3" d="M98.44,56.98l2.03-.72c1.02-.36,1.02-1.8,0-2.16l-2.03-.72,4.93-14.97c.27-.83-.35-1.69-1.22-1.69h-1.76c-1.71,0-3.31.87-4.23,2.32l-6.83,10.71c-.48.75-1.37,1.11-2.23.89-2-.51-5.91-1.34-10.16-1.34h-15.61v-6.7c0-2.34.37-4.67,1.09-6.9l7.85-24.24c.73-2.26-2.42-3.66-3.6-1.59l-21.87,38.28c-.4.71-1.15,1.14-1.97,1.14h-9.39c-12.28,0-19.74,2.43-23.51,4.16-1.48.68-1.48,2.75,0,3.43,3.77,1.74,11.23,4.16,23.51,4.16h9.39c.81,0,1.56.44,1.97,1.14l21.87,38.28c1.18,2.07,4.33.67,3.6-1.59l-7.85-24.24c-.72-2.23-1.09-4.56-1.09-6.9v-6.7h15.61c4.25,0,8.15-.83,10.16-1.34.86-.22,1.75.14,2.23.89l6.83,10.71c.92,1.44,2.52,2.32,4.23,2.32h1.76c.87,0,1.49-.86,1.22-1.69l-4.93-14.97Z"/>
    </g>
  </g>
</svg>