<?xml version="1.0" encoding="UTF-8"?>
<svg xmlns="http://www.w3.org/2000/svg" xmlns:xlink="http://www.w3.org/1999/xlink" viewBox="0 0 92.63 94.6">
  <defs>
    <style>
      .cls-1 {
        fill: url(#linear-gradient);
      }

      .cls-1, .cls-2, .cls-3 {
        stroke-width: 0px;
      }

      .cls-2 {
        fill: url(#linear-gradient-2);
      }

      .cls-3 {
        fill: #fff;
      }
    </style>
    <linearGradient id="linear-gradient" x1="34.74" y1="43.07" x2="29.54" y2="31.92" gradientUnits="userSpaceOnUse">
      <stop offset="0" stop-color="#bfbfbf"/>
      <stop offset=".5" stop-color="#fcfcfc"/>
    </linearGradient>
    <linearGradient id="linear-gradient-2" x1="57.89" y1="43.07" x2="63.08" y2="31.92" xlink:href="#linear-gradient"/>
  </defs>
  <path class="cls-1" d="M34.89,31.99c1.62,3.78,0,11.01,0,11.01h-5.5s-1.67-6.34,0-11.01h5.5Z"/>
  <path class="cls-2" d="M57.73,31.99c-1.62,3.78,0,11.01,0,11.01h5.5s1.67-6.34,0-11.01h-5.5Z"/>
  <path class="cls-3" d="M44.51,89.6l.72,2.03c.36,1.02,1.8,1.02,2.16,0l.72-2.03,14.97,4.93c.83.27,1.69-.35,1.69-1.22v-1.76c0-1.71-.87-3.31-2.32-4.23l-10.71-6.83c-.75-.48-1.11-1.37-.89-2.23.51-2,1.34-5.91,1.34-10.16v-15.61h6.7c2.34,0,4.67.37,6.9,1.09l24.24,7.85c2.26.73,3.66-2.42,1.59-3.6l-38.28-21.87c-.71-.4-1.14-1.15-1.14-1.97v-9.39c0-12.28-2.43-19.74-4.16-23.51-.68-1.48-2.75-1.48-3.43,0-1.74,3.77-4.16,11.23-4.16,23.51v9.39c0,.81-.44,1.56-1.14,1.97L1.01,57.85c-2.07,1.18-.67,4.33,1.59,3.6l24.24-7.85c2.23-.72,4.56-1.09,6.9-1.09h6.7v15.61c0,4.25.83,8.15,1.34,10.16.22.86-.14,1.75-.89,2.23l-10.71,6.83c-1.44.92-2.32,2.52-2.32,4.23v1.76c0,.87.86,1.49,1.69,1.22l14.97-4.93Z"/>
</svg>