<?xml version="1.0" encoding="UTF-8"?>
<svg id="Layer_2" data-name="Layer 2" xmlns="http://www.w3.org/2000/svg" xmlns:xlink="http://www.w3.org/1999/xlink" viewBox="0 0 180.04 200.41">
  <defs>
    <style>
      .cls-1 {
        fill: url(#linear-gradient);
      }

      .cls-1, .cls-2, .cls-3, .cls-4, .cls-5 {
        stroke-width: 0px;
      }

      .cls-2 {
        fill: url(#linear-gradient-4);
      }

      .cls-3 {
        fill: url(#linear-gradient-2);
      }

      .cls-4 {
        fill: url(#linear-gradient-3);
      }

      .cls-5 {
        fill: #fff;
      }
    </style>
    <linearGradient id="linear-gradient" x1="60.94" y1="84.34" x2="52.18" y2="69.17" gradientUnits="userSpaceOnUse">
      <stop offset="0" stop-color="#bfbfbf"/>
      <stop offset=".5" stop-color="#fcfcfc"/>
    </linearGradient>
    <linearGradient id="linear-gradient-2" x1="35.51" y1="107.59" x2="26.75" y2="92.42" xlink:href="#linear-gradient"/>
    <linearGradient id="linear-gradient-3" x1="119.1" y1="84.34" x2="127.86" y2="69.17" xlink:href="#linear-gradient"/>
    <linearGradient id="linear-gradient-4" x1="144.53" y1="107.59" x2="153.29" y2="92.42" xlink:href="#linear-gradient"/>
  </defs>
  <g id="Layer_1-2" data-name="Layer 1">
    <g id="B747">
      <path class="cls-1" d="M59.99,68.62c2.12,4.7,0,16.26,0,16.26h-6.86s-1.7-11,0-16.26h6.86Z"/>
      <path class="cls-3" d="M34.56,91.88c2.12,4.7,0,16.26,0,16.26h-6.86s-1.7-11,0-16.26h6.86Z"/>
      <path class="cls-4" d="M120.05,68.62c-2.12,4.7,0,16.26,0,16.26h6.86s1.7-11,0-16.26h-6.86Z"/>
      <path class="cls-2" d="M145.48,91.88c-2.12,4.7,0,16.26,0,16.26h6.86s1.7-11,0-16.26h-6.86Z"/>
      <path class="cls-5" d="M88.43,192.82l.84,2.52c.24.72,1.26.72,1.5,0l.84-2.52,27.17,7.51c1.53.42,3.04-.73,3.04-2.31v-2.44c0-1.37-.58-2.68-1.6-3.61l-22.4-20.32c-1.03-.93-1.54-2.3-1.37-3.68l1.32-10.82c.93-7.61,1.39-15.28,1.39-22.95v-32.2l23.33,7.5c2.98.96,5.84,2.28,8.5,3.93l46.47,28.8c1.12.7,2.57-.11,2.57-1.43v-6.76c0-1.67-.72-3.27-1.98-4.38L100.91,61.74c-1.06-.93-1.67-2.28-1.67-3.69v-21.08c0-14.25-2.96-26.42-5.53-34.29-1.17-3.57-6.22-3.57-7.39,0-2.57,7.87-5.53,20.04-5.53,34.29v21.08c0,1.41-.61,2.76-1.67,3.69L1.98,129.66c-1.26,1.11-1.98,2.7-1.98,4.38v6.76c0,1.32,1.45,2.13,2.57,1.43l46.47-28.81c2.66-1.65,5.52-2.97,8.5-3.93l23.33-7.5v32.2c0,7.67.47,15.33,1.39,22.95l1.32,10.82c.17,1.38-.34,2.75-1.37,3.68l-22.4,20.32c-1.02.92-1.6,2.23-1.6,3.61v2.44c0,1.58,1.51,2.73,3.04,2.31l27.17-7.51Z"/>
    </g>
  </g>
</svg>