<?xml version="1.0" encoding="UTF-8"?>
<svg id="Layer_2" data-name="Layer 2" xmlns="http://www.w3.org/2000/svg" xmlns:xlink="http://www.w3.org/1999/xlink" viewBox="0 0 198 219">
  <defs>
    <style>
      .cls-1 {
        filter: url(#drop-shadow-5);
      }

      .cls-1, .cls-2, .cls-3, .cls-4, .cls-5 {
        fill: #fff;
        stroke-width: 0px;
      }

      .cls-2 {
        filter: url(#drop-shadow-2);
      }

      .cls-3 {
        filter: url(#drop-shadow-1);
      }

      .cls-4 {
        filter: url(#drop-shadow-3);
      }

      .cls-5 {
        filter: url(#drop-shadow-4);
      }
    </style>
    <filter id="drop-shadow-1" filterUnits="userSpaceOnUse">
      <feOffset dx="0" dy="0"/>
      <feGaussianBlur result="blur" stdDeviation="2.83"/>
      <feFlood flood-color="#000" flood-opacity=".15"/>
      <feComposite in2="blur" operator="in"/>
      <feComposite in="SourceGraphic"/>
    </filter>
    <filter id="drop-shadow-2" filterUnits="userSpaceOnUse">
      <feOffset dx="0" dy="0"/>
      <feGaussianBlur result="blur-2" stdDeviation="2.83"/>
      <feFlood flood-color="#000" flood-opacity=".15"/>
      <feComposite in2="blur-2" operator="in"/>
      <feComposite in="SourceGraphic"/>
    </filter>
    <filter id="drop-shadow-3" filterUnits="userSpaceOnUse">
      <feOffset dx="0" dy="0"/>
      <feGaussianBlur result="blur-3" stdDeviation="2.83"/>
      <feFlood flood-color="#000" flood-opacity=".15"/>
      <feComposite in2="blur-3" operator="in"/>
      <feComposite in="SourceGraphic"/>
    </filter>
    <filter id="drop-shadow-4" filterUnits="userSpaceOnUse">
      <feOffset dx="0" dy="0"/>
      <feGaussianBlur result="blur-4" stdDeviation="2.83"/>
      <feFlood flood-color="#000" flood-opacity=".15"/>
      <feComposite in2="blur-4" operator="in"/>
      <feComposite in="SourceGraphic"/>
    </filter>
    <filter id="drop-shadow-5" filterUnits="userSpaceOnUse">
      <feOffset dx="0" dy="0"/>
      <feGaussianBlur result="blur-5" stdDeviation="2.83"/>
      <feFlood flood-color="#000" flood-opacity=".15"/>
      <feComposite in2="blur-5" operator="in"/>
      <feComposite in="SourceGraphic"/>
    </filter>
  </defs>
  <g id="Layer_1-2" data-name="Layer 1">
    <g id="B747">
      <path class="cls-3" d="M69.32,78.08c2.12,4.7,0,16.26,0,16.26h-6.86s-1.7-11,0-16.26h6.86Z"/>
      <path class="cls-2" d="M43.89,101.34c2.12,4.7,0,16.26,0,16.26h-6.86s-1.7-11,0-16.26h6.86Z"/>
      <path class="cls-4" d="M129.38,78.08c-2.12,4.7,0,16.26,0,16.26h6.86s1.7-11,0-16.26h-6.86Z"/>
      <path class="cls-5" d="M154.81,101.34c-2.12,4.7,0,16.26,0,16.26h6.86s1.7-11,0-16.26h-6.86Z"/>
      <path class="cls-1" d="M97.76,202.28l.84,2.52c.24.72,1.26.72,1.5,0l.84-2.52,27.17,7.51c1.53.42,3.04-.73,3.04-2.31v-2.44c0-1.37-.58-2.68-1.6-3.61l-22.4-20.32c-1.03-.93-1.54-2.3-1.37-3.68l1.32-10.82c.93-7.61,1.39-15.28,1.39-22.95v-32.2l23.33,7.5c2.98.96,5.84,2.28,8.5,3.93l46.47,28.8c1.12.7,2.57-.11,2.57-1.43v-6.76c0-1.67-.72-3.27-1.98-4.38l-77.15-67.92c-1.06-.93-1.67-2.28-1.67-3.69v-21.08c0-14.25-2.96-26.42-5.53-34.29-1.17-3.57-6.22-3.57-7.39,0-2.57,7.87-5.53,20.04-5.53,34.29v21.08c0,1.41-.61,2.76-1.67,3.69L11.31,139.12c-1.26,1.11-1.98,2.7-1.98,4.38v6.76c0,1.32,1.45,2.13,2.57,1.43l46.47-28.81c2.66-1.65,5.52-2.97,8.5-3.93l23.33-7.5v32.2c0,7.67.47,15.33,1.39,22.95l1.32,10.82c.17,1.38-.34,2.75-1.37,3.68l-22.4,20.32c-1.02.92-1.6,2.23-1.6,3.61v2.44c0,1.58,1.51,2.73,3.04,2.31l27.17-7.51Z"/>
    </g>
  </g>
</svg>