<?xml version="1.0" encoding="UTF-8"?>
<svg xmlns="http://www.w3.org/2000/svg" xmlns:xlink="http://www.w3.org/1999/xlink" viewBox="0 0 107.89 154.37">
  <defs>
    <style>
      .cls-1 {
        fill: url(#linear-gradient);
      }

      .cls-1, .cls-2, .cls-3 {
        stroke-width: 0px;
      }

      .cls-2 {
        fill: url(#linear-gradient-2);
      }

      .cls-3 {
        fill: #fff;
      }
    </style>
    <linearGradient id="linear-gradient" x1=".25" y1="-12.23" x2="-15.05" y2="-4.43" gradientTransform="translate(27.2 73.34) rotate(90)" gradientUnits="userSpaceOnUse">
      <stop offset="0" stop-color="#bfbfbf"/>
      <stop offset=".5" stop-color="#fcfcfc"/>
    </linearGradient>
    <linearGradient id="linear-gradient-2" x1=".25" y1="972.65" x2="-15.05" y2="980.45" gradientTransform="translate(-904.19 73.34) rotate(90) scale(1 -1)" xlink:href="#linear-gradient"/>
  </defs>
  <path class="cls-1" d="M39.28,58.21h-7.49c-1.06,3.76,0,15.47,0,15.47h7.49s1.05-10.99,0-15.47Z"/>
  <path class="cls-2" d="M68.61,58.21h7.49c1.06,3.76,0,15.47,0,15.47h-7.49s-1.05-10.99,0-15.47Z"/>
  <path class="cls-3" d="M52.43.63c.83-.85,2.21-.85,3.03,0,1.57,1.6,3.78,5.28,3.78,13.33v46.59c0,.87.48,1.68,1.25,2.09l45.63,24.69c1.09.59,1.77,1.73,1.77,2.96v2.02c0,1.06-1,1.84-2.03,1.57l-29.75-7.64h-16.87s0,36.84,0,36.84c0,7.1-.68,10.66-1.06,12.12-.14.51.07,1.05.51,1.35l16.61,11.04c.74.49,1.18,1.32,1.18,2.2v2.57c0,.58-.54,1.01-1.11.88l-19.4-4.44-1.26,5.56h-1.54s-1.26-5.56-1.26-5.56l-19.4,4.44c-.57.13-1.11-.3-1.11-.88v-2.57c0-.89.44-1.71,1.18-2.2l16.61-11.04c.44-.29.65-.83.51-1.35-.39-1.46-1.06-5.02-1.06-12.12v-36.84s-16.87,0-16.87,0l-29.75,7.64C1,94.16,0,93.38,0,92.32v-2.02c0-1.24.68-2.38,1.77-2.96l45.63-24.69c.77-.42,1.25-1.22,1.25-2.09V13.96c0-8.05,2.22-11.73,3.78-13.33Z"/>
</svg>