<?xml version="1.0" encoding="UTF-8"?>
<svg id="Layer_2" data-name="Layer 2" xmlns="http://www.w3.org/2000/svg" xmlns:xlink="http://www.w3.org/1999/xlink" viewBox="0 0 200 227">
  <defs>
    <style>
      .cls-1 {
        filter: url(#drop-shadow-2);
      }

      .cls-1, .cls-2, .cls-3 {
        fill: #fff;
        stroke-width: 0px;
      }

      .cls-2 {
        filter: url(#drop-shadow-1);
      }

      .cls-3 {
        filter: url(#drop-shadow-3);
      }
    </style>
    <filter id="drop-shadow-1" filterUnits="userSpaceOnUse">
      <feOffset dx="0" dy="0"/>
      <feGaussianBlur result="blur" stdDeviation="2.83"/>
      <feFlood flood-color="#000" flood-opacity=".15"/>
      <feComposite in2="blur" operator="in"/>
      <feComposite in="SourceGraphic"/>
    </filter>
    <filter id="drop-shadow-2" filterUnits="userSpaceOnUse">
      <feOffset dx="0" dy="0"/>
      <feGaussianBlur result="blur-2" stdDeviation="2.83"/>
      <feFlood flood-color="#000" flood-opacity=".15"/>
      <feComposite in2="blur-2" operator="in"/>
      <feComposite in="SourceGraphic"/>
    </filter>
    <filter id="drop-shadow-3" filterUnits="userSpaceOnUse">
      <feOffset dx="0" dy="0"/>
      <feGaussianBlur result="blur-3" stdDeviation="2.83"/>
      <feFlood flood-color="#000" flood-opacity=".15"/>
      <feComposite in2="blur-3" operator="in"/>
      <feComposite in="SourceGraphic"/>
    </filter>
  </defs>
  <g id="Layer_1-2" data-name="Layer 1">
    <g id="B773">
      <path class="cls-2" d="M77.36,101.33s3.02-15.86,0-21.83h-9.54c-3.02,5.97,0,21.83,0,21.83h9.54Z"/>
      <path class="cls-1" d="M122.65,101.33s-3.02-15.86,0-21.83h9.54c3.02,5.97,0,21.83,0,21.83h-9.54Z"/>
      <path class="cls-3" d="M97.93,208.37l1.13,4.2c.26.96,1.62.96,1.88,0l1.13-4.2,27.31,9.68c.61.22,1.25-.24,1.25-.89v-3.18c0-1.54-.69-3.01-1.89-3.98l-22.13-18.02c-.6-.49-.86-1.27-.69-2.01.78-3.31,2.85-12.69,2.85-19.44v-47.46h17.07c3.2,0,6.37.55,9.38,1.62l52.56,18.71c3.04,1.08,5.12-3.08,2.43-4.86l-79.9-52.85c-.96-.64-1.54-1.71-1.54-2.86v-40.22c0-20.21-4.03-29.12-6.63-32.76-1.05-1.47-3.24-1.47-4.29,0-2.6,3.64-6.63,12.55-6.63,32.76v40.22c0,1.15-.58,2.23-1.54,2.86L9.79,138.54c-2.69,1.78-.62,5.94,2.43,4.86l52.56-18.71c3.01-1.07,6.19-1.62,9.38-1.62h17.07v47.46c0,6.75,2.06,16.13,2.85,19.44.18.75-.09,1.53-.69,2.01l-22.13,18.02c-1.2.97-1.89,2.44-1.89,3.98v3.18c0,.65.64,1.1,1.25.89l27.31-9.68Z"/>
    </g>
  </g>
</svg>