<?xml version="1.0" encoding="UTF-8"?>
<svg xmlns="http://www.w3.org/2000/svg" xmlns:xlink="http://www.w3.org/1999/xlink" viewBox="0 0 182.93 209.37">
  <defs>
    <style>
      .cls-1 {
        fill: url(#linear-gradient);
      }

      .cls-1, .cls-2, .cls-3 {
        stroke-width: 0px;
      }

      .cls-2 {
        fill: url(#linear-gradient-2);
      }

      .cls-3 {
        fill: #fff;
      }
    </style>
    <linearGradient id="linear-gradient" x1="69.97" y1="93.92" x2="58.13" y2="73.42" gradientUnits="userSpaceOnUse">
      <stop offset="0" stop-color="#bfbfbf"/>
      <stop offset=".4" stop-color="#fcfcfc"/>
    </linearGradient>
    <linearGradient id="linear-gradient-2" x1="112.97" y1="93.92" x2="124.81" y2="73.42" xlink:href="#linear-gradient"/>
  </defs>
  <path class="cls-1" d="M68.82,94.59s3.02-15.86,0-21.83h-9.54c-3.02,5.97,0,21.83,0,21.83h9.54Z"/>
  <path class="cls-2" d="M114.11,94.59s-3.02-15.86,0-21.83h9.54c3.02,5.97,0,21.83,0,21.83h-9.54Z"/>
  <path class="cls-3" d="M89.39,199.63l1.13,4.2c.26.96,1.62.96,1.88,0l1.13-4.2,27.31,9.68c.61.22,1.25-.24,1.25-.89v-3.18c0-1.54-.69-3.01-1.89-3.98l-22.13-18.02c-.6-.49-.86-1.27-.69-2.01.78-3.31,2.85-12.69,2.85-19.44v-47.46h17.07c3.2,0,6.37.55,9.38,1.62l52.56,18.71c3.04,1.08,5.12-3.08,2.43-4.86l-79.9-52.85c-.96-.64-1.54-1.71-1.54-2.86v-40.22c0-20.21-4.03-29.12-6.63-32.76-1.05-1.47-3.24-1.47-4.29,0-2.6,3.64-6.63,12.55-6.63,32.76v40.22c0,1.15-.58,2.23-1.54,2.86L1.25,129.8c-2.69,1.78-.62,5.94,2.43,4.86l52.56-18.71c3.01-1.07,6.19-1.62,9.38-1.62h17.07v47.46c0,6.75,2.06,16.13,2.85,19.44.18.75-.09,1.53-.69,2.01l-22.13,18.02c-1.2.97-1.89,2.44-1.89,3.98v3.18c0,.65.64,1.1,1.25.89l27.31-9.68Z"/>
</svg>