<?xml version="1.0" encoding="UTF-8"?>
<svg id="Layer_2" data-name="Layer 2" xmlns="http://www.w3.org/2000/svg" xmlns:xlink="http://www.w3.org/1999/xlink" viewBox="0 0 55 41">
  <defs>
    <style>
      .cls-1 {
        fill: #fff;
        filter: url(#drop-shadow-1);
        stroke-width: 0px;
      }
    </style>
    <filter id="drop-shadow-1" filterUnits="userSpaceOnUse">
      <feOffset dx="0" dy="0"/>
      <feGaussianBlur result="blur" stdDeviation="2.83"/>
      <feFlood flood-color="#000" flood-opacity=".15"/>
      <feComposite in2="blur" operator="in"/>
      <feComposite in="SourceGraphic"/>
    </filter>
  </defs>
  <g id="Layer_1-2" data-name="Layer 1">
    <path id="DA40" class="cls-1" d="M31.93,32.01v-.71c0-.29-.2-.54-.48-.61l-3.41-.85c-.14-.03-.23-.16-.23-.3v-3.17c0-1.01-.05-2.75.66-4.67.4-1.08.51-1.86.54-2.24.01-.15.14-.27.29-.29l15.7-1.27c.41-.03.67-.44.53-.83l-.51-1.43c-.13-.37-.48-.62-.87-.64l-14.74-.52c-.16,0-.29-.13-.29-.29-.01-.63-.1-2.27-.57-4.53-.02-.11-.12-.19-.23-.19h-1.94c-.11,0-.21.08-.23.19-.47,2.25-.56,3.89-.57,4.53,0,.16-.13.29-.29.29l-14.74.52c-.39.01-.74.27-.87.64l-.51,1.43c-.14.38.13.79.53.83l15.7,1.27c.15.01.28.13.29.29.03.38.14,1.16.54,2.24.71,1.92.66,3.66.66,4.67v3.17c0,.14-.1.26-.23.3l-3.41.85c-.28.07-.48.32-.48.61v.71c0,.17.14.31.31.31h8.58c.17,0,.31-.14.31-.31Z"/>
  </g>
</svg>