<?xml version="1.0" encoding="UTF-8"?>
<svg id="Layer_2" data-name="Layer 2" xmlns="http://www.w3.org/2000/svg" xmlns:xlink="http://www.w3.org/1999/xlink" viewBox="0 0 41 54">
  <defs>
    <style>
      .cls-1 {
        fill: #fff;
        filter: url(#drop-shadow-1);
        stroke-width: 0px;
      }
    </style>
    <filter id="drop-shadow-1" filterUnits="userSpaceOnUse">
      <feOffset dx="0" dy="0"/>
      <feGaussianBlur result="blur" stdDeviation="2.83"/>
      <feFlood flood-color="#000" flood-opacity=".15"/>
      <feComposite in2="blur" operator="in"/>
      <feComposite in="SourceGraphic"/>
    </filter>
  </defs>
  <g id="Layer_1-2" data-name="Layer 1">
    <path id="DA40" class="cls-1" d="M31.45,22.3h-.71c-.29,0-.54.2-.61.48l-.85,3.41c-.03.14-.16.23-.3.23h-3.17c-1.01,0-2.75.05-4.67-.66-1.08-.4-1.86-.51-2.24-.54-.15-.01-.27-.14-.29-.29l-1.27-15.7c-.03-.41-.44-.67-.83-.53l-1.43.51c-.37.13-.62.48-.64.87l-.52,14.74c0,.16-.13.29-.29.29-.63.01-2.27.1-4.53.57-.11.02-.19.12-.19.23v1.94c0,.11.08.21.19.23,2.25.47,3.89.56,4.53.57.16,0,.29.13.29.29l.52,14.74c.01.39.27.74.64.87l1.43.51c.38.14.79-.13.83-.53l1.27-15.7c.01-.15.13-.28.29-.29.38-.03,1.16-.14,2.24-.54,1.92-.71,3.66-.66,4.67-.66h3.17c.14,0,.26.1.3.23l.85,3.41c.07.28.32.48.61.48h.71c.17,0,.31-.14.31-.31v-8.58c0-.17-.14-.31-.31-.31Z"/>
  </g>
</svg>