<svg xmlns="http://www.w3.org/2000/svg">
    <symbol id="B773" viewBox="0 0 182.93 209.37">
      <defs>
        <linearGradient id="A" x1="69.97" x2="58.13" y1="93.92" y2="73.42" gradientUnits="userSpaceOnUse">
          <stop offset="0" stop-color="#bfbfbf"/>
          <stop offset=".4" stop-color="#fcfcfc"/>
        </linearGradient>
        <linearGradient href="#A" id="B" x1="112.97" x2="124.81" y1="93.92" y2="73.42"/>
      </defs>
      <path fill="url(#A)" d="M68.82 94.59s3.02-15.86 0-21.83h-9.54c-3.02 5.97 0 21.83 0 21.83h9.54Z"/>
      <path fill="url(#B)" d="M114.11 94.59s-3.02-15.86 0-21.83h9.54c3.02 5.97 0 21.83 0 21.83h-9.54Z"/>
      <path fill="#fff" d="m89.39 199.63 1.13 4.2c.26.96 1.62.96 1.88 0l1.13-4.2 27.31 9.68a.938.938 0 0 0 1.25-.89v-3.18c0-1.54-.69-3.01-1.89-3.98l-22.13-18.02c-.6-.49-.86-1.27-.69-2.01.78-3.31 2.85-12.69 2.85-19.44v-47.46h17.07c3.2 0 6.37.55 9.38 1.62l52.56 18.71c3.04 1.08 5.12-3.08 2.43-4.86l-79.9-52.85a3.44 3.44 0 0 1-1.54-2.86V33.87c0-20.21-4.03-29.12-6.63-32.76a2.638 2.638 0 0 0-4.29 0c-2.6 3.64-6.63 12.55-6.63 32.76v40.22c0 1.15-.58 2.23-1.54 2.86L1.25 129.8c-2.69 1.78-.62 5.94 2.43 4.86l52.56-18.71a28.04 28.04 0 0 1 9.38-1.62h17.07v47.46c0 6.75 2.06 16.13 2.85 19.44.18.75-.09 1.53-.69 2.01l-22.13 18.02a5.12 5.12 0 0 0-1.89 3.98v3.18c0 .65.64 1.1 1.25.89l27.31-9.68Z"/>
    </symbol>

    <symbol id="DA40" viewBox="0 0 36.47 22.85">
      <path fill="#fff" d="M22.83 22.54v-.71c0-.29-.2-.54-.48-.61l-3.41-.85a.3.3 0 0 1-.23-.3V16.9c0-1.01-.05-2.75.66-4.67.4-1.08.51-1.86.54-2.24.01-.15.14-.27.29-.29l15.7-1.27c.41-.03.67-.44.53-.83l-.51-1.43a.974.974 0 0 0-.87-.64l-14.74-.52a.29.29 0 0 1-.29-.29c-.01-.63-.1-2.27-.57-4.53a.235.235 0 0 0-.23-.19h-1.94c-.11 0-.21.08-.23.19-.47 2.25-.56 3.89-.57 4.53 0 .16-.13.29-.29.29l-14.74.52c-.39.01-.74.27-.87.64L.04 7.6c-.14.38.13.79.53.83l15.7 1.27c.15.01.28.13.29.29.03.38.14 1.16.54 2.24.71 1.92.66 3.66.66 4.67v3.17c0 .14-.1.26-.23.3l-3.41.85a.63.63 0 0 0-.48.61v.71c0 .17.14.31.31.31h8.58c.17 0 .31-.14.31-.31Z"/>
    </symbol>

    <symbol id="A320" viewBox="0 0 98.95 106.33">
      <defs>
        <linearGradient id="C" x1="35.93" x2="30.92" y1="42.6" y2="31.87" gradientUnits="userSpaceOnUse">
          <stop offset="0" stop-color="#bfbfbf"/>
          <stop offset=".4" stop-color="#fcfcfc"/>
        </linearGradient>
        <linearGradient href="#C" id="D" x1="63.02" x2="68.03" y2="31.87"/>
      </defs>
      <path fill="url(#C)" d="M35.86 31.84s1.73 4.58 0 10.8h-4.87c-1.73-6.21 0-10.8 0-10.8h4.87Z"/>
      <path fill="url(#D)" d="M63.09 31.84s-1.73 4.58 0 10.8h4.87c1.73-6.21 0-10.8 0-10.8h-4.87Z"/>
      <path fill="#fff" d="m51.58 100.36 14.72 3.33c.48.11.93-.25.93-.74v-1.87c0-.67-.34-1.29-.91-1.65l-11.96-7.52a2.107 2.107 0 0 1-.95-2.17c.54-2.91 1.71-9.59 1.71-12.84V53.48h8.4c2.47 0 4.92.33 7.3.99l25.6 7.05c2.31.64 3.56-2.6 1.43-3.68L57.73 37.43a4.786 4.786 0 0 1-2.61-4.26V16.08c0-9.02-2.67-13.53-4.34-15.47-.69-.8-1.93-.8-2.62 0-1.67 1.94-4.34 6.45-4.34 15.47v17.09c0 1.8-1.01 3.45-2.61 4.26L1.1 57.84c-2.13 1.09-.88 4.32 1.43 3.68l25.6-7.05c2.38-.66 4.84-.99 7.3-.99h8.4V76.9c0 3.25 1.17 9.93 1.71 12.84.16.85-.22 1.71-.95 2.17l-11.96 7.52c-.57.36-.91.98-.91 1.65v1.87c0 .49.45.85.93.74l14.72-3.33s.2 3.28 1.56 5.97h1.1c1.36-2.69 1.56-5.97 1.56-5.97Z"/>
    </symbol>

    <symbol id="A337" viewBox="0 0 126.71 160.16">
      <defs>
        <linearGradient id="E" x1="80.74" x2="91.53" y1="70.55" y2="51.87" gradientUnits="userSpaceOnUse">
          <stop offset="0" stop-color="#bfbfbf"/>
          <stop offset=".4" stop-color="#fcfcfc"/>
        </linearGradient>
        <linearGradient href="#E" id="F" x1="45.97" x2="35.18" y1="70.55" y2="51.87"/>
      </defs>
      <path fill="url(#E)" d="M82.53 71.58s-1.53-16.23 0-20.75h7.21c1.53 4.51 0 20.75 0 20.75h-7.21Z"/>
      <path fill="url(#F)" d="M44.18 71.58s1.53-16.23 0-20.75h-7.21c-1.53 4.51 0 20.75 0 20.75h7.21Z"/>
      <path fill="#fff" d="m65.38 152.52 18.99 6.78c.51.18 1.06-.2 1.06-.74v-4.18c0-1.17-.55-2.27-1.49-2.97l-14.72-10.95a2.253 2.253 0 0 1-.87-2.21l4.22-23.1c.94-5.14 1.41-10.36 1.41-15.59v-13.4h9.77c3.64 0 7.26.64 10.68 1.9l30.24 11.14c.98.36 2.03-.37 2.03-1.41v-3.52c0-1.73-.92-3.34-2.41-4.21L77.11 62.34a6.317 6.317 0 0 1-3.12-5.46V27.74c0-5.54-3.08-12.35-4.74-17.34C67.12 4.02 65.46 0 63.36 0s-3.76 4.02-5.89 10.4c-1.66 4.99-4.74 11.79-4.74 17.34v29.14a6.35 6.35 0 0 1-3.12 5.46L2.41 90.05A4.894 4.894 0 0 0 0 94.26v3.52a1.5 1.5 0 0 0 2.03 1.41l30.24-11.14c3.42-1.26 7.03-1.9 10.68-1.9h9.77v13.4c0 5.23.47 10.44 1.41 15.59l4.22 23.1c.15.84-.18 1.7-.87 2.21L42.76 151.4c-.94.7-1.49 1.8-1.49 2.97v4.18c0 .55.54.93 1.06.74l18.99-6.78 1.07 6.81c.07.47.48.82.96.82s.89-.35.96-.82l1.07-6.81Z"/>
    </symbol>

    <symbol id="A345" viewBox="0 0 191.5 192.56">
      <defs>
        <linearGradient id="G" x1="123.26" x2="130.96" y1="81.61" y2="68.28" gradientUnits="userSpaceOnUse">
          <stop offset="0" stop-color="#bfbfbf"/>
          <stop offset=".4" stop-color="#fcfcfc"/>
        </linearGradient>
        <linearGradient href="#G" id="H" x1="156.57" x2="164.27" y1="102.63" y2="89.31"/>
        <linearGradient href="#G" id="I" x1="68.24" x2="60.54" y2="68.28"/>
        <linearGradient href="#G" id="J" x1="34.93" x2="27.23" y1="102.63" y2="89.31"/>
      </defs>
      <path fill="url(#G)" d="M122.7 81.28V69.01c0-1.05.85-1.9 1.9-1.9h3.8c1.05 0 1.9.85 1.9 1.9v14.46l-7.61-2.19Z"/>
      <path fill="url(#H)" d="M156.01 102.31V90.04c0-1.05.85-1.9 1.9-1.9h3.8c1.05 0 1.9.85 1.9 1.9v14.46l-7.61-2.19Z"/>
      <path fill="url(#I)" d="M68.8 81.28V69.01a1.9 1.9 0 0 0-1.9-1.9h-3.8a1.9 1.9 0 0 0-1.9 1.9v14.46l7.61-2.19Z"/>
      <path fill="url(#J)" d="M35.49 102.31V90.04a1.9 1.9 0 0 0-1.9-1.9h-3.8a1.9 1.9 0 0 0-1.9 1.9v14.46l7.61-2.19Z"/>
      <path fill="#fff" d="m92.86 183.95 1.84 6.1c.32 1.05 1.8 1.05 2.12 0l1.84-6.1 27.32 8.53c.97.3 1.96-.42 1.96-1.44v-2.65c0-1.62-.81-3.13-2.16-4.03l-23.15-15.37a2.435 2.435 0 0 1-1.04-2.47c.98-5.04 3.9-21.33 3.9-36.16v-30.21l15.97 2.44c3.21.49 6.35 1.36 9.36 2.58l58.45 23.82c1.06.43 2.23-.35 2.23-1.5v-3.95c0-1.75-.89-3.38-2.36-4.32l-81.99-52.6a3.618 3.618 0 0 1-1.66-3.04V39.14C105.49 11 100.18 2.9 97.4.58c-.96-.8-2.35-.8-3.3 0-2.78 2.31-8.09 10.41-8.09 38.56v24.44c0 1.23-.63 2.37-1.66 3.04L2.36 119.23A5.127 5.127 0 0 0 0 123.55v3.95a1.62 1.62 0 0 0 2.23 1.5l58.45-23.82c3.01-1.23 6.15-2.09 9.36-2.58l15.97-2.44v30.21c0 14.83 2.92 31.11 3.9 36.16.19.96-.22 1.93-1.04 2.47l-23.15 15.37c-1.35.9-2.16 2.41-2.16 4.03v2.65c0 1.02.99 1.75 1.96 1.44l27.32-8.53Z"/>
    </symbol>

    <symbol id="A220" viewBox="0 0 101.74 99.22">
      <defs>
        <linearGradient id="K" x1="37.02" x2="30.56" y1="41.95" y2="28.11" gradientUnits="userSpaceOnUse">
          <stop offset="0" stop-color="#bfbfbf"/>
          <stop offset=".4" stop-color="#fcfcfc"/>
        </linearGradient>
        <linearGradient href="#K" id="L" x1="64.72" x2="71.17" y1="41.95" y2="28.11"/>
      </defs>
      <path fill="url(#K)" d="M36.91 42s2.08-5.5.12-13.85h-6.54C29.4 35.9 30.61 42 30.61 42h6.31Z"/>
      <path fill="url(#L)" d="M64.83 42s-2.08-5.5-.12-13.85h6.54C72.34 35.9 71.13 42 71.13 42h-6.31Z"/>
      <path fill="#fff" d="m53.33 93.57 13.56 3.4c.41.1.82-.21.82-.64v-1.27c0-1.31-.66-2.54-1.75-3.27l-10.08-6.75c-.45-.3-.67-.84-.56-1.37.36-1.65 1.07-5.74 1.07-12.62v-20.7H66.6c1.38 0 2.75.23 4.05.68l28.75 9.86c2.03.69 3.29-2.15 1.42-3.19L57.23 33.43a1.64 1.64 0 0 1-.84-1.43V17.29c0-8.39-2.11-13.55-3.73-16.25a2.082 2.082 0 0 0-3.59 0c-1.61 2.71-3.73 7.86-3.73 16.25V32c0 .6-.32 1.14-.84 1.43L.91 57.7c-1.87 1.04-.6 3.89 1.42 3.19l28.75-9.86c1.3-.45 2.67-.68 4.05-.68h10.21v20.7c0 6.88.71 10.97 1.07 12.62.12.53-.11 1.07-.56 1.37l-10.08 6.75a3.945 3.945 0 0 0-1.75 3.27v1.27c0 .43.4.74.82.64l13.56-3.4 1.09 4.58a1.4 1.4 0 0 0 1.36 1.08 1.4 1.4 0 0 0 1.36-1.08l1.09-4.58Z"/>
    </symbol>

    <symbol id="A359" viewBox="0 0 176.05 189.35">
      <defs>
        <linearGradient id="M" x1="62.06" x2="53.4" y1="81.47" y2="66.46" gradientUnits="userSpaceOnUse">
          <stop offset="0" stop-color="#bfbfbf"/>
          <stop offset=".5" stop-color="#fcfcfc"/>
        </linearGradient>
        <linearGradient href="#M" id="N" x1="113.99" x2="122.65" y2="66.46"/>
      </defs>
      <path fill="url(#M)" d="M63.23 80.79s1.56-10.23 0-14.31h-9.87s-2.47 2.81 0 16.93"/>
      <path fill="url(#N)" d="M112.82 80.79s-1.56-10.23 0-14.31h9.87s2.47 2.81 0 16.93"/>
      <path fill="#fff" d="m85.8 181.2 1 3.77c.15.55.65.94 1.22.94s1.07-.39 1.22-.94l1-3.77 22.33 8.05c1.09.39 2.23-.45 2.18-1.6-.19-4.29-.96-5.21-2.46-6.52-3.69-3.22-13.75-10.56-18.2-13.78a3.84 3.84 0 0 1-1.46-4.1c1.21-4.5 3.54-14.09 3.54-21.31v-39.48h14.01c5.15 0 10.26.96 15.07 2.82l47.62 18.49c2.53.98 4.4-2.44 2.2-4.04L98.68 64.24a4.671 4.671 0 0 1-1.93-3.78V40.01c0-24.35-3.93-34.65-6.52-38.78-1.02-1.63-3.41-1.63-4.43 0-2.59 4.14-6.52 14.44-6.52 38.78v20.45c0 1.5-.72 2.9-1.93 3.78L.97 119.72c-2.2 1.6-.33 5.02 2.2 4.04l47.62-18.49c4.8-1.86 9.91-2.82 15.07-2.82h14.01v39.48c0 7.23 2.33 16.82 3.54 21.32a3.83 3.83 0 0 1-1.45 4.1c-4.45 3.22-14.51 10.56-18.2 13.78-1.5 1.31-2.28 2.23-2.46 6.52-.05 1.16 1.09 2 2.18 1.6l22.33-8.05Z"/>
    </symbol>

    <symbol id="A388" viewBox="0 0 255.59 206.14">
      <defs>
        <linearGradient id="O" x1="89.27" x2="79.11" y1="80.96" y2="63.37" gradientUnits="userSpaceOnUse">
          <stop offset="0" stop-color="#bfbfbf"/>
          <stop offset=".5" stop-color="#fcfcfc"/>
        </linearGradient>
        <linearGradient href="#O" id="P" x1="55.99" x2="45.83" y1="104.31" y2="86.71"/>
        <linearGradient href="#O" id="Q" x1="166.33" x2="176.49" y1="80.96" y2="63.37"/>
        <linearGradient href="#O" id="R" x1="199.6" x2="209.76" y1="104.31" y2="86.71"/>
      </defs>
      <path fill="url(#O)" d="M88.68 81.3c2.92-10.35 0-18.27 0-18.27h-8.99s-2.92 7.93 0 18.27h8.99Z"/>
      <path fill="url(#P)" d="M55.41 104.65c2.92-10.35 0-18.27 0-18.27h-8.99s-2.92 7.93 0 18.27h8.99Z"/>
      <path fill="url(#Q)" d="M166.91 81.3c-2.92-10.35 0-18.27 0-18.27h8.99s2.92 7.93 0 18.27h-8.99Z"/>
      <path fill="url(#R)" d="M200.19 104.65c-2.92-10.35 0-18.27 0-18.27h8.99s2.92 7.93 0 18.27h-8.99Z"/>
      <path fill="#fff" d="m124.75 193.3 1.59 6.74c.36 1.54 2.55 1.54 2.91 0l1.59-6.74 38.59 12.72c1.47.48 2.98-.61 2.98-2.16v-3.6c0-3.12-1.52-6.04-4.07-7.83l-30.07-21.13a6.387 6.387 0 0 1-2.54-6.78c1.1-4.42 2.6-11.68 2.6-18.53v-40.87l16.03 3.68c4.91 1.13 9.73 2.64 14.41 4.52l79.47 31.95c5.84 2.35 10.2-5.61 5.06-9.26L141.19 56.27a6.196 6.196 0 0 1-2.61-5.06V26.83c0-11.35-4.19-20-7.35-24.92-1.63-2.53-5.29-2.53-6.91 0-3.16 4.92-7.35 13.57-7.35 24.92v24.38c0 2.01-.97 3.89-2.61 5.06L2.28 135.99c-5.13 3.65-.78 11.61 5.06 9.26l79.47-31.95c4.68-1.88 9.49-3.39 14.41-4.52l16.03-3.68v40.87c0 6.85 1.49 14.11 2.6 18.53.64 2.57-.37 5.26-2.54 6.78l-30.07 21.13a9.565 9.565 0 0 0-4.07 7.83v3.6c0 1.55 1.51 2.64 2.98 2.16l38.59-12.72Z"/>
    </symbol>

    <symbol id="B737" viewBox="0 0 92.63 94.6">
      <defs>
        <linearGradient id="S" x1="34.74" x2="29.54" y1="43.07" y2="31.92" gradientUnits="userSpaceOnUse">
          <stop offset="0" stop-color="#bfbfbf"/>
          <stop offset=".5" stop-color="#fcfcfc"/>
        </linearGradient>
        <linearGradient href="#S" id="T" x1="57.89" x2="63.08" y1="43.07" y2="31.92"/>
      </defs>
      <path fill="url(#S)" d="M34.89 31.99c1.62 3.78 0 11.01 0 11.01h-5.5s-1.67-6.34 0-11.01h5.5Z"/>
      <path fill="url(#T)" d="M57.73 31.99c-1.62 3.78 0 11.01 0 11.01h5.5s1.67-6.34 0-11.01h-5.5Z"/>
      <path fill="#fff" d="m44.51 89.6.72 2.03c.36 1.02 1.8 1.02 2.16 0l.72-2.03 14.97 4.93c.83.27 1.69-.35 1.69-1.22v-1.76c0-1.71-.87-3.31-2.32-4.23l-10.71-6.83a2.04 2.04 0 0 1-.89-2.23c.51-2 1.34-5.91 1.34-10.16V52.49h6.7c2.34 0 4.67.37 6.9 1.09l24.24 7.85c2.26.73 3.66-2.42 1.59-3.6L53.34 35.96c-.71-.4-1.14-1.15-1.14-1.97V24.6c0-12.28-2.43-19.74-4.16-23.51-.68-1.48-2.75-1.48-3.43 0-1.74 3.77-4.16 11.23-4.16 23.51v9.39c0 .81-.44 1.56-1.14 1.97L1.01 57.85c-2.07 1.18-.67 4.33 1.59 3.6l24.24-7.85a22.47 22.47 0 0 1 6.9-1.09h6.7v15.61c0 4.25.83 8.15 1.34 10.16.22.86-.14 1.75-.89 2.23l-10.71 6.83a5.032 5.032 0 0 0-2.32 4.23v1.76c0 .87.86 1.49 1.69 1.22l14.97-4.93Z"/>
    </symbol>

    <symbol id="B753" viewBox="0 0 107.89 154.37">
      <defs>
        <linearGradient id="U" x1=".25" x2="-15.05" y1="-12.23" y2="-4.43" gradientTransform="rotate(90 -23.07 50.27)" gradientUnits="userSpaceOnUse">
          <stop offset="0" stop-color="#bfbfbf"/>
          <stop offset=".5" stop-color="#fcfcfc"/>
        </linearGradient>
        <linearGradient href="#U" id="V" x1=".25" x2="-15.05" y1="972.65" y2="980.45" gradientTransform="matrix(0 1 1 0 -904.19 73.34)"/>
      </defs>
      <path fill="url(#U)" d="M39.28 58.21h-7.49c-1.06 3.76 0 15.47 0 15.47h7.49s1.05-10.99 0-15.47Z"/>
      <path fill="url(#V)" d="M68.61 58.21h7.49c1.06 3.76 0 15.47 0 15.47h-7.49s-1.05-10.99 0-15.47Z"/>
      <path fill="#fff" d="M52.43.63c.83-.85 2.21-.85 3.03 0 1.57 1.6 3.78 5.28 3.78 13.33v46.59c0 .87.48 1.68 1.25 2.09l45.63 24.69c1.09.59 1.77 1.73 1.77 2.96v2.02c0 1.06-1 1.84-2.03 1.57l-29.75-7.64H59.24v36.84c0 7.1-.68 10.66-1.06 12.12-.14.51.07 1.05.51 1.35l16.61 11.04a2.64 2.64 0 0 1 1.18 2.2v2.57c0 .58-.54 1.01-1.11.88l-19.4-4.44-1.26 5.56h-1.54l-1.26-5.56-19.4 4.44a.905.905 0 0 1-1.11-.88v-2.57c0-.89.44-1.71 1.18-2.2l16.61-11.04c.44-.29.65-.83.51-1.35-.39-1.46-1.06-5.02-1.06-12.12V86.24H31.77L2.02 93.88C1 94.16 0 93.38 0 92.32V90.3c0-1.24.68-2.38 1.77-2.96L47.4 62.65c.77-.42 1.25-1.22 1.25-2.09v-46.6c0-8.05 2.22-11.73 3.78-13.33Z"/>
    </symbol>

    <symbol id="B747" viewBox="0 0 180.04 200.41">
      <defs>
        <linearGradient id="W" x1="60.94" x2="52.18" y1="84.34" y2="69.17" gradientUnits="userSpaceOnUse">
          <stop offset="0" stop-color="#bfbfbf"/>
          <stop offset=".5" stop-color="#fcfcfc"/>
        </linearGradient>
        <linearGradient href="#W" id="X" x1="35.51" x2="26.75" y1="107.59" y2="92.42"/>
        <linearGradient href="#W" id="Y" x1="119.1" x2="127.86" y1="84.34" y2="69.17"/>
        <linearGradient href="#W" id="Z" x1="144.53" x2="153.29" y1="107.59" y2="92.42"/>
      </defs>
      <path fill="url(#W)" d="M59.99 68.62c2.12 4.7 0 16.26 0 16.26h-6.86s-1.7-11 0-16.26h6.86Z"/>
      <path fill="url(#X)" d="M34.56 91.88c2.12 4.7 0 16.26 0 16.26H27.7s-1.7-11 0-16.26h6.86Z"/>
      <path fill="url(#Y)" d="M120.05 68.62c-2.12 4.7 0 16.26 0 16.26h6.86s1.7-11 0-16.26h-6.86Z"/>
      <path fill="url(#Z)" d="M145.48 91.88c-2.12 4.7 0 16.26 0 16.26h6.86s1.7-11 0-16.26h-6.86Z"/>
      <path fill="#fff" d="m88.43 192.82.84 2.52c.24.72 1.26.72 1.5 0l.84-2.52 27.17 7.51c1.53.42 3.04-.73 3.04-2.31v-2.44c0-1.37-.58-2.68-1.6-3.61l-22.4-20.32a4.25 4.25 0 0 1-1.37-3.68l1.32-10.82c.93-7.61 1.39-15.28 1.39-22.95V102l23.33 7.5c2.98.96 5.84 2.28 8.5 3.93l46.47 28.8c1.12.7 2.57-.11 2.57-1.43v-6.76c0-1.67-.72-3.27-1.98-4.38l-77.14-67.92a4.918 4.918 0 0 1-1.67-3.69V36.97c0-14.25-2.96-26.42-5.53-34.29-1.17-3.57-6.22-3.57-7.39 0-2.57 7.87-5.53 20.04-5.53 34.29v21.08c0 1.41-.61 2.76-1.67 3.69L1.98 129.66A5.828 5.828 0 0 0 0 134.04v6.76c0 1.32 1.45 2.13 2.57 1.43l46.47-28.81c2.66-1.65 5.52-2.97 8.5-3.93l23.33-7.5v32.2c0 7.67.47 15.33 1.39 22.95l1.32 10.82a4.25 4.25 0 0 1-1.37 3.68l-22.4 20.32c-1.02.92-1.6 2.23-1.6 3.61v2.44c0 1.58 1.51 2.73 3.04 2.31l27.17-7.51Z"/>
    </symbol>

    <symbol id="generic" viewBox="0 0 127 131">
      <path fill="#fff" d="M52.75 27.67v23.65c0 1.01-.46 1.97-1.26 2.59L10.86 86c-3.58 2.83-.47 8.5 3.84 7l38.55-13.43c.57 11.42 1.48 22.8 2.11 29.9l-14.08 6.13c-3.52 1.53-2.43 6.79 1.41 6.79h42.27c3.84 0 4.94-5.26 1.41-6.79l-14.09-6.13c.62-7.13 1.54-18.55 2.11-29.9l38.56 13.44c4.31 1.5 7.43-4.17 3.84-7L76.16 53.92a3.319 3.319 0 0 1-1.26-2.59V27.68s.02-18.66-11.09-18.66-11.09 18.66-11.09 18.66Z"/>
    </symbol>

    <symbol id="AT72" viewBox="0 0 75.68 78.44">
      <defs>
        <linearGradient id="a" x1="26.18" x2="26.18" y1="32.31" y2="24.9" gradientUnits="userSpaceOnUse">
          <stop offset="0" stop-color="#bfbfbf"/>
          <stop offset=".3" stop-color="#fcfcfc"/>
        </linearGradient>
        <linearGradient href="#a" id="b" x1="49.5" x2="49.5"/>
      </defs>
      <path fill="url(#a)" d="M25.85 25.09c-.37.64-.9 2.39-.9 7.22h2.47c0-4.83-.54-6.59-.9-7.22a.377.377 0 0 0-.66 0Z"/>
      <path fill="url(#b)" d="M49.83 25.09c.37.64.9 2.39.9 7.22h-2.47c0-4.83.54-6.59.9-7.22.15-.26.51-.26.66 0Z"/>
      <path fill="#fff" d="M37.83 78.44c.17 0 .24-.84.26-1.24 0-.12.1-.2.21-.21l9.01-.52c.4-.02.72-.36.72-.76v-1.26c0-.61-.43-1.14-1.03-1.26l-7.45-1.53a.443.443 0 0 1-.35-.52c.47-2.29 2.67-13.16 2.67-17.48V40.28c0-.44.36-.81.81-.81h7.41c.66 0 1.32-.02 1.99-.05l22.48-1.24c.63-.03 1.12-.55 1.12-1.18v-1.29c0-.94-.72-1.72-1.66-1.79l-21.53-1.69c-.93-.07-1.87-.11-2.81-.11h-7c-.44 0-.81-.36-.81-.81V8.25c0-4.24-1.57-6.57-2.75-7.73-.72-.7-1.86-.7-2.58 0-1.18 1.15-2.75 3.48-2.75 7.73V31.3c0 .44-.36.81-.81.81h-7c-.94 0-1.87.04-2.81.11L1.64 33.91c-.94.07-1.66.85-1.66 1.79v1.29c0 .63.49 1.15 1.12 1.18l22.48 1.24c.66.04 1.32.05 1.99.05h7.41c.44 0 .81.36.81.81v13.38c0 4.32 2.2 15.19 2.67 17.48.05.24-.11.47-.35.52l-7.45 1.53c-.6.12-1.03.65-1.03 1.26v1.26c0 .41.32.74.72.76l8.99.52c.12 0 .21.1.21.21.02.4.1 1.24.26 1.24Z"/>
    </symbol>
</svg>
